<?xml version="1.0" encoding="UTF-8" standalone="no"?>
<!-- Created with Inkscape (http://www.inkscape.org/) -->

<svg
   width="163.23199mm"
   height="167.25101mm"
   viewBox="0 0 163.232 167.25101"
   version="1.1"
   id="svg5"
   inkscape:version="1.2.2 (b0a8486541, 2022-12-01)"
   sodipodi:docname="logo-graphdt.svg"
   xmlns:inkscape="http://www.inkscape.org/namespaces/inkscape"
   xmlns:sodipodi="http://sodipodi.sourceforge.net/DTD/sodipodi-0.dtd"
   xmlns="http://www.w3.org/2000/svg"
   xmlns:svg="http://www.w3.org/2000/svg">
  <sodipodi:namedview
     id="namedview7"
     pagecolor="#ffffff"
     bordercolor="#999999"
     borderopacity="1"
     inkscape:showpageshadow="0"
     inkscape:pageopacity="0"
     inkscape:pagecheckerboard="0"
     inkscape:deskcolor="#d1d1d1"
     inkscape:document-units="mm"
     showgrid="false"
     inkscape:zoom="1.4142136"
     inkscape:cx="394.21203"
     inkscape:cy="556.49304"
     inkscape:window-width="3840"
     inkscape:window-height="2036"
     inkscape:window-x="-12"
     inkscape:window-y="-12"
     inkscape:window-maximized="1"
     inkscape:current-layer="layer1" />
  <defs
     id="defs2" />
  <g
     inkscape:label="Layer 1"
     inkscape:groupmode="layer"
     id="layer1"
     transform="translate(-1.136778,-1.2996702)">
    <g
       id="g2188"
       transform="translate(-8.1090114,-65.171055)">
      <path
         sodipodi:type="star"
         style="fill:none;stroke:#d108b6;stroke-width:7.362;stroke-linecap:square;stroke-dasharray:none;stroke-opacity:1"
         id="path1011"
         inkscape:flatsided="true"
         sodipodi:sides="3"
         sodipodi:cx="91.486359"
         sodipodi:cy="87.370407"
         sodipodi:r1="66.612236"
         sodipodi:r2="33.306118"
         sodipodi:arg1="0.78539816"
         sodipodi:arg2="1.8325957"
         inkscape:rounded="0"
         inkscape:randomized="0"
         d="M 138.58832,134.47237 27.14388,104.61092 108.72687,23.027928 Z"
         inkscape:transform-center-x="8.6202588"
         inkscape:transform-center-y="-8.6202588"
         transform="translate(-9.7286109,78.951418)" />
      <path
         sodipodi:type="star"
         style="fill:none;stroke:#d108b6;stroke-width:7.362;stroke-linecap:square;stroke-dasharray:none;stroke-opacity:1"
         id="path1011-7"
         inkscape:flatsided="true"
         sodipodi:sides="3"
         sodipodi:cx="91.486359"
         sodipodi:cy="87.370407"
         sodipodi:r1="66.612236"
         sodipodi:r2="33.306118"
         sodipodi:arg1="0.78539816"
         sodipodi:arg2="1.8325957"
         inkscape:rounded="0"
         inkscape:randomized="0"
         d="M 138.58832,134.47237 27.14388,104.61092 108.72687,23.027928 Z"
         inkscape:transform-center-x="8.6202588"
         inkscape:transform-center-y="-8.6202588"
         transform="translate(11.256769,73.370208)" />
      <path
         sodipodi:type="star"
         style="fill:none;stroke:#d108b6;stroke-width:16.744;stroke-linecap:square;stroke-dasharray:none;stroke-opacity:1"
         id="path1011-1"
         inkscape:flatsided="true"
         sodipodi:sides="3"
         sodipodi:cx="91.486359"
         sodipodi:cy="87.370407"
         sodipodi:r1="66.612236"
         sodipodi:r2="33.306118"
         sodipodi:arg1="0.78539816"
         sodipodi:arg2="1.8325957"
         inkscape:rounded="0"
         inkscape:randomized="0"
         d="M 138.58832,134.47237 27.14388,104.61092 108.72687,23.027928 Z"
         inkscape:transform-center-x="3.7901455"
         inkscape:transform-center-y="-3.7901459"
         transform="matrix(0.43967889,0,0,0.43967889,78.608134,64.515295)" />
      <path
         sodipodi:type="star"
         style="fill:none;stroke:#d108b6;stroke-width:7.362;stroke-linecap:square;stroke-dasharray:none;stroke-opacity:1"
         id="path1011-0"
         inkscape:flatsided="true"
         sodipodi:sides="3"
         sodipodi:cx="91.486359"
         sodipodi:cy="87.370407"
         sodipodi:r1="66.612236"
         sodipodi:r2="33.306118"
         sodipodi:arg1="0.78539816"
         sodipodi:arg2="1.8325957"
         inkscape:rounded="0"
         inkscape:randomized="0"
         d="M 138.58832,134.47237 27.14388,104.61092 108.72687,23.027928 Z"
         inkscape:transform-center-x="4.1287017"
         inkscape:transform-center-y="-4.1287104"
         transform="matrix(0.47895373,0,0,0.47895373,87.362885,104.64338)" />
      <path
         sodipodi:type="star"
         style="fill:none;stroke:#d108b6;stroke-width:16.744;stroke-linecap:square;stroke-dasharray:none;stroke-opacity:1"
         id="path1011-1-9"
         inkscape:flatsided="true"
         sodipodi:sides="3"
         sodipodi:cx="91.486359"
         sodipodi:cy="87.370407"
         sodipodi:r1="66.612236"
         sodipodi:r2="33.306118"
         sodipodi:arg1="0.78539816"
         sodipodi:arg2="1.8325957"
         inkscape:rounded="0"
         inkscape:randomized="0"
         d="M 138.58832,134.47237 27.14388,104.61092 108.72687,23.027928 Z"
         inkscape:transform-center-x="3.7901455"
         inkscape:transform-center-y="-3.7901459"
         transform="matrix(0.43967889,0,0,0.43967889,105.396,164.45483)" />
    </g>
    <g
       aria-label="GraphDT"
       id="text2131"
       style="font-size:21.1577px;line-height:1.25;font-family:'Courier New';-inkscape-font-specification:'Courier New';letter-spacing:0px;word-spacing:0px;fill:#d108b6;stroke-width:0.220392"
       transform="translate(-11.289518,-81.821946)">
      <path
         d="m 29.53046,243.55267 q -2.231477,1.26037 -4.958836,1.26037 -3.171589,0 -5.134462,-2.04552 -1.952541,-2.04552 -1.952541,-5.4134 0,-3.44019 2.169491,-5.64068 2.179821,-2.21081 5.516704,-2.21081 2.417433,0 4.060047,0.78515 v 1.92155 q -1.797578,-1.1364 -4.256334,-1.1364 -2.489749,0 -4.080709,1.71493 -1.590959,1.71493 -1.590959,4.44229 0,2.81001 1.477319,4.42163 1.47732,1.60129 4.008393,1.60129 1.735592,0 3.006294,-0.69217 v -4.15303 h -3.243905 v -1.5703 h 4.979498 z"
         style="font-family:'Segoe UI';-inkscape-font-specification:'Segoe UI'"
         id="path2190" />
      <path
         d="m 38.260077,235.70117 q -0.444229,-0.34092 -1.281033,-0.34092 -1.084745,0 -1.818239,1.02276 -0.723164,1.02276 -0.723164,2.78935 v 5.39273 h -1.694269 v -10.57885 h 1.694269 v 2.17983 h 0.04132 q 0.361581,-1.11574 1.105407,-1.7356 0.743825,-0.63018 1.663276,-0.63018 0.661178,0 1.012429,0.14463 z"
         style="font-family:'Segoe UI';-inkscape-font-specification:'Segoe UI'"
         id="path2192" />
      <path
         d="m 47.671535,244.56509 h -1.694269 v -1.65294 h -0.04132 q -1.105407,1.90089 -3.254236,1.90089 -1.580629,0 -2.479418,-0.83681 -0.888458,-0.8368 -0.888458,-2.22114 0,-2.96497 3.491847,-3.45053 l 3.171589,-0.44423 q 0,-2.69636 -2.179822,-2.69636 -1.911218,0 -3.450523,1.30169 v -1.73559 q 1.559967,-0.99177 3.595156,-0.99177 3.729458,0 3.729458,3.94641 z m -1.694269,-5.35141 -2.551734,0.35125 q -1.177724,0.1653 -1.776917,0.58887 -0.599192,0.41323 -0.599192,1.47732 0,0.77481 0.547538,1.2707 0.557869,0.48555 1.47732,0.48555 1.26037,0 2.076512,-0.87813 0.826473,-0.88845 0.826473,-2.2418 z"
         style="font-family:'Segoe UI';-inkscape-font-specification:'Segoe UI'"
         id="path2194" />
      <path
         d="m 52.599377,243.03612 h -0.04132 v 6.39483 h -1.694269 v -15.44471 h 1.694269 v 1.85957 h 0.04132 q 1.250039,-2.10751 3.657141,-2.10751 2.04552,0 3.192251,1.42567 1.14673,1.41533 1.14673,3.80177 0,2.65505 -1.291363,4.25634 -1.291364,1.59096 -3.533171,1.59096 -2.05585,0 -3.171588,-1.77692 z m -0.04132,-4.26667 v 1.47732 q 0,1.31203 0.847134,2.23148 0.857466,0.90912 2.169491,0.90912 1.539305,0 2.407102,-1.17772 0.878127,-1.17773 0.878127,-3.2749 0,-1.76659 -0.816142,-2.76868 -0.816142,-1.0021 -2.210814,-1.0021 -1.47732,0 -2.376109,1.03309 -0.898789,1.02276 -0.898789,2.57239 z"
         style="font-family:'Segoe UI';-inkscape-font-specification:'Segoe UI'"
         id="path2196" />
      <path
         d="m 72.083471,244.56509 h -1.694269 v -6.09523 q 0,-3.30589 -2.458756,-3.30589 -1.239709,0 -2.086843,0.96077 -0.847135,0.95045 -0.847135,2.44843 v 5.99192 H 63.3022 v -15.66165 h 1.694268 v 6.83906 h 0.04132 q 1.219047,-2.0042 3.471185,-2.0042 3.574494,0 3.574494,4.30799 z"
         style="font-family:'Segoe UI';-inkscape-font-specification:'Segoe UI'"
         id="path2198" />
      <path
         d="m 75.503002,244.56509 v -14.81452 h 4.091039 q 7.830829,0 7.830829,7.22131 0,3.42986 -2.179822,5.5167 -2.169491,2.07651 -5.816301,2.07651 z m 1.735592,-13.24422 v 11.67393 h 2.210815 q 2.913316,0 4.535268,-1.55997 1.621953,-1.55997 1.621953,-4.42163 0,-5.69233 -6.053912,-5.69233 z"
         style="font-family:'Segoe UI';-inkscape-font-specification:'Segoe UI'"
         id="path2200" />
      <path
         d="m 98.148351,231.32087 h -4.276996 v 13.24422 h -1.735593 v -13.24422 h -4.266665 v -1.5703 h 10.279254 z"
         style="font-family:'Segoe UI';-inkscape-font-specification:'Segoe UI'"
         id="path2202" />
    </g>
  </g>
</svg>
